/* XPM */
static char *a8f672093e5a4dc2e274ac52d2ce6463PHnvLrBiA32g1N86[] = {
/* columns rows colors chars-per-pixel */
"32 32 44 1 ",
"  c #8E6C2F",
". c #906C2F",
"X c #8E6B31",
"o c #916E32",
"O c #957234",
"+ c #987736",
"@ c #967238",
"# c #9C7639",
"$ c #9D793C",
"% c #A17C3D",
"& c #A37E41",
"* c #A4803F",
"= c #9F8247",
"- c #A68242",
"; c #AA8444",
": c #AC8945",
"> c #A4864A",
", c #AB8549",
"< c #A7884E",
"1 c #AD8B4D",
"2 c #B08C47",
"3 c #B0874A",
"4 c #B28D4B",
"5 c #B5914D",
"6 c #BA944E",
"7 c #BE984F",
"8 c #AD8B51",
"9 c #B28F50",
"0 c #B59252",
"q c #BB9553",
"w c #BE9954",
"e c #BA9758",
"r c #BE9B5A",
"t c #C09754",
"y c #C19A55",
"u c #C29D5A",
"i c #C4A15E",
"p c #C49F60",
"a c #C5A464",
"s c #C8A564",
"d c #C6A867",
"f c #C6A768",
"g c #C9A668",
"h c #C7A868",
/* pixels */
"fuqu500yy,&tyyqiq4q$yye6ww55yu5a",
"iyquqq6yuyo4yyqur%6+yy66q1w0as4y",
"u46it65yyy%2yyqyu45#yyq<yys6uu,u",
"i&7aqy5yyy&4quqti&qoyyq1yuieya%i",
"u#tayyqypu$5yy99uqtoqtyquuuwys#i",
"p#yayyyyuy#qyy99yauX6yyqyiywyi$s",
"u$wuyyyyay#yyyyriaqX4yyqwiywyr*a",
"u%qiyytiyy#tuuyyaa4o2qywwiyyd;1r",
"p%4iyy7uyy#wwiywai$o65y67duss$y0",
"e1;ayy6iyi$7ysyyfuO:y>1tqhfd57u0",
"au%uyy0uui%6ysywfy 6y5y:rfdiwui1",
"af;qaw1yiy-5uuqyfy wyy6oiddffaq8",
"fau:auq0if-4uyqrfqXyy2;*6adasw>e",
"fua;uiy8yu-5iy5rfq.tu;5;;iddy<1u",
"hqf;uuy1wu-7iy4efe.yy*-:$iddw=9s",
"h5a4quy8yy&yaw11u0Xyy;y5+iddi>1i",
"a4iy5uwqyi$7sy00p0oyyq4y;ir1<>>0",
"uqri5iyqyi*;wr00p0oyyyt2ui>000eq",
"rp1s5wyyyuq%iy0waq+yyyy4s5q10w08",
"0f*f5irO*yw1iyqwpt&yqyyqaw1w01y1",
"ys*u5f0;2446yyqyiu%tqy4uyy8qy6w0",
"yf105a;7y;;uywqway$yqy46yy00yy0q",
"ya42wy$44%-uywqwsy;4ty66qyqqq9q0",
"ua45uy#y2%;yyqewayq%qyu64u9yqy8w",
"pa,yi4$q-%:yyqqqfuyo1qt600r00qww",
"aa&ay1$O:;;yqq<wsuw#.q060yp0y1ua",
"fa4q1=&Xq4;y6y4rgyq+660qtry9y0af",
"at498>1:2t3tqwqugqq;q0tyyry060da",
"u6e0q>yy654yq11usqy;y4yyrei00wih",
"fqaq19y4t3:tw00whuy;tquy60yq0yqd",
"fafu1tu6y,4yywqya6q*urye0w10qyqf",
"fawp8q5yu;5yyyqyw:w$yyy0yw90wy4a"
};
